<svg xmlns="http://www.w3.org/2000/svg" xmlns:xlink="http://www.w3.org/1999/xlink" width="20" height="16"><defs><path id="a" d="M487.154 630a3.85 3.85 0 0 1 3.846 3.846v7.692a3.85 3.85 0 0 1-3.846 3.847h-12.308a3.85 3.85 0 0 1-3.846-3.847v-7.692a3.85 3.85 0 0 1 3.846-3.846h12.308m-12.308 1.538a2.31 2.31 0 0 0-2.094 1.351l7.677 6.141c.337.27.806.27 1.141 0l7.678-6.14a2.308 2.308 0 0 0-2.094-1.352h-12.308m12.308 12.308a2.31 2.31 0 0 0 2.308-2.308v-6.85l-6.93 5.544a2.44 2.44 0 0 1-3.063 0l-6.93-5.544v6.85a2.31 2.31 0 0 0 2.307 2.308h12.308"/></defs><use fill="#cbcfd7" xlink:href="#a" transform="translate(-471 -630)"/></svg>