<svg xmlns="http://www.w3.org/2000/svg" xmlns:xlink="http://www.w3.org/1999/xlink" width="25" height="18"><defs><path id="a" d="M200.942 638.933h4.69v4.456c0 .198.207.292.336.174l7.406-6.8a.24.24 0 0 0 0-.345l-7.406-6.799c-.13-.119-.336-.025-.336.173v4.457h-5.472a8.586 8.586 0 0 0-8.104 5.729 8.421 8.421 0 0 0-.488 3.18 12.473 12.473 0 0 1 9.374-4.225zm3.12-6.244v-2.896c0-1.546 1.816-2.372 2.957-1.324l7.402 6.803c.772.71.772 1.938 0 2.647l-7.403 6.805c-1.14 1.047-2.955.22-2.955-1.325v-2.897h-3.125a10.899 10.899 0 0 0-8.197 3.699c-.936 1.062-2.684.437-2.734-.974a9.99 9.99 0 0 1 .576-3.766 10.144 10.144 0 0 1 9.573-6.772z"/></defs><use fill="#cbcfd7" xlink:href="#a" opacity=".8" transform="translate(-190 -628)"/></svg>