<svg xmlns="http://www.w3.org/2000/svg" xmlns:xlink="http://www.w3.org/1999/xlink" width="194" height="159"><defs><path id="a" d="M20 43a3 3 0 0 1 3-3h114a3 3 0 0 1 3 3v74a3 3 0 0 1-3 3H23a3 3 0 0 1-3-3z"/><path id="b" d="M83.138 120H23a3 3 0 0 1-3-3V43a3 3 0 0 1 3-3h114a3 3 0 0 1 3 3v61.987"/><path id="c" d="M35 81a1 1 0 0 1 1-1h27.91a1 1 0 0 1 1 1v16.37a1 1 0 0 1-1 1H36a1 1 0 0 1-1-1z"/><path id="d" d="M39 94.37V76h29.91v18.37z"/><path id="e" d="M80 108a3 3 0 0 1 3-3h114a3 3 0 0 1 3 3v74a3 3 0 0 1-3 3H83a3 3 0 0 1-3-3z"/><path id="f" d="M132 136a3 3 0 0 1 3-3h51a3 3 0 0 1 3 3v29a3 3 0 0 1-3 3h-51a3 3 0 0 1-3-3z"/><path id="g" d="M20 43a3 3 0 0 1 3-3h114a3 3 0 0 1 3 3v12H20z"/><path id="j" d="M20 44a3 3 0 0 1 3-3h114a3 3 0 0 1 3 3v8H20z"/><path id="l" d="M39 46a1 1 0 1 1 2 0 1 1 0 0 1-2 0z"/><path id="m" d="M32 46a1 1 0 1 1 2 0 1 1 0 0 1-2 0z"/><path id="n" d="M25 46a1 1 0 1 1 2 0 1 1 0 0 1-2 0z"/><path id="o" d="M27 110V61h50v49z"/><path id="p" d="M21.5 51.5h117"/><path id="q" d="M85.5 75.5h10"/><path id="r" d="M116.5 87.5h11"/><path id="s" d="M100.5 75.5h27"/><path id="t" d="M85.5 87.5h26"/><path id="u" d="M85.5 81.5h42"/><path id="v" d="M85.57 70h42"/><path id="x" d="M37 92v-9h15v9z"/><path id="y" d="M61.5 95.5h-24"/><path id="z" d="M56.85 85.595c0-1.433.786-2.595 1.755-2.595.97 0 1.755 1.162 1.755 2.595 0 1.433-.786 2.595-1.755 2.595-.97 0-1.755-1.162-1.755-2.595z"/><path id="A" d="M57.37 86.1c0-.43-.201-.78-.45-.78s-.45.35-.45.78c0 .43.201.78.45.78s.45-.35.45-.78z"/><path id="B" d="M59.84 86.09c0-.43.201-.78.45-.78s.45.35.45.78c0 .43-.201.78-.45.78s-.45-.35-.45-.78z"/><path id="C" d="M57.44 87.63h2.29v.983c1.21.422 2.105 1.494 2.25 2.787h-6.79c.145-1.293 1.04-2.365 2.25-2.787z"/><path id="G" d="M80 108a3 3 0 0 1 3-3h114a3 3 0 0 1 3 3v9H80z"/><path id="I" d="M99 111a1 1 0 1 1 2 0 1 1 0 0 1-2 0z"/><path id="J" d="M92 111a1 1 0 1 1 2 0 1 1 0 0 1-2 0z"/><path id="K" d="M85 111a1 1 0 1 1 2 0 1 1 0 0 1-2 0z"/><path id="L" d="M81.5 116.5h117"/><path id="M" d="M189 167a1 1 0 0 1-1 1h-55a1 1 0 0 1-1-1v-6h57z"/><path id="N" d="M169 155v-16h14v16z"/><path id="O" d="M91 168v-35h29v35z"/><path id="Q" d="M99.35 147.905c0-4.918 2.693-8.905 6.015-8.905 3.322 0 6.015 3.987 6.015 8.905 0 4.918-2.693 8.905-6.015 8.905-3.322 0-6.015-3.987-6.015-8.905z"/><path id="R" d="M101.12 149.63c0-1.475-.692-2.67-1.545-2.67s-1.545 1.195-1.545 2.67c0 1.475.692 2.67 1.545 2.67s1.545-1.195 1.545-2.67z"/><path id="S" d="M109.59 149.59c0-1.475.692-2.67 1.545-2.67s1.545 1.195 1.545 2.67c0 1.475-.692 2.67-1.545 2.67s-1.545-1.195-1.545-2.67z"/><path id="T" d="M101.367 154.88h7.856v3.37c4.143 1.445 7.212 5.113 7.714 9.54H93.663c.502-4.424 3.566-8.09 7.704-9.536z"/><path id="U" d="M173.18 145.455c0-2.46 1.345-4.455 3.005-4.455s3.005 1.995 3.005 4.455-1.345 4.455-3.005 4.455-3.005-1.995-3.005-4.455z"/><path id="V" d="M174.06 146.315c0-.737-.345-1.335-.77-1.335-.425 0-.77.598-.77 1.335s.345 1.335.77 1.335c.425 0 .77-.598.77-1.335z"/><path id="W" d="M178.29 146.295c0-.737.345-1.335.77-1.335.425 0 .77.598.77 1.335s-.345 1.335-.77 1.335c-.425 0-.77-.598-.77-1.335z"/><path id="X" d="M174.18 148.94h3.93v1.691c2.07.723 3.604 2.556 3.854 4.769h-11.638c.25-2.213 1.784-4.046 3.854-4.769z"/><path id="Y" d="M164.5 139.5h-27"/><path id="Z" d="M164.5 144.5h-27"/><path id="aa" d="M164.5 149.5h-27"/><path id="ab" d="M164.5 154.5h-27"/><path id="ac" d="M188.5 160.5h-55"/><path id="ad" d="M128 150.871l-4 3.87V147z"/><path id="ae" d="M165.71 81.26v5h-5"/><path id="af" d="M163.667 86.667C163.667 80.223 158.443 75 152 75"/><mask id="i" width="2" height="2" x="-1" y="-1"><path fill="#fff" d="M20 40h120v80H20z"/><use xlink:href="#a"/></mask><filter id="h" width="160" height="124" x="0" y="20" filterUnits="userSpaceOnUse"><feOffset dy="4" in="SourceGraphic" result="FeOffset1748Out"/><feGaussianBlur in="FeOffset1748Out" result="FeGaussianBlur1749Out" stdDeviation="4 4"/></filter><clipPath id="k"><use fill="#fff" xlink:href="#b"/></clipPath><clipPath id="w"><use fill="#fff" xlink:href="#c"/></clipPath><clipPath id="D"><use fill="#fff" xlink:href="#d"/></clipPath><mask id="F" width="2" height="2" x="-1" y="-1"><path fill="#fff" d="M80 105h120v80H80z"/><use xlink:href="#e"/></mask><filter id="E" width="160" height="124" x="60" y="85" filterUnits="userSpaceOnUse"><feOffset dy="4" in="SourceGraphic" result="FeOffset1880Out"/><feGaussianBlur in="FeOffset1880Out" result="FeGaussianBlur1881Out" stdDeviation="4 4"/></filter><clipPath id="H"><use fill="#fff" xlink:href="#e"/></clipPath><clipPath id="P"><use fill="#fff" xlink:href="#f"/></clipPath></defs><use fill="#fafafc" xlink:href="#g" transform="translate(-13 -37)"/><g transform="translate(-13 -37)"><g filter="url(#h)"><use fill="none" stroke-opacity=".06" stroke-width="0" mask="url(&quot;#i&quot;)" xlink:href="#a"/><use fill="#40484f" fill-opacity=".06" xlink:href="#a"/></g><use fill="#fff" xlink:href="#a"/></g><use fill="#fafafc" xlink:href="#j" transform="translate(-13 -37)"/><use fill="#fff" fill-opacity="0" stroke="#cbcfd7" stroke-miterlimit="50" stroke-width="2" clip-path="url(&quot;#k&quot;)" xlink:href="#b" opacity=".3" transform="translate(-13 -37)"/><use fill="#e5e6ec" xlink:href="#l" transform="translate(-13 -37)"/><use fill="#e5e6ec" xlink:href="#m" transform="translate(-13 -37)"/><use fill="#e5e6ec" xlink:href="#n" transform="translate(-13 -37)"/><use fill="#f5f6fa" xlink:href="#o" transform="translate(-13 -37)"/><use fill="#fff" fill-opacity="0" stroke="#cbcfd7" stroke-linecap="square" stroke-miterlimit="50" xlink:href="#p" opacity=".3" transform="translate(-13 -37)"/><use fill="#fff" fill-opacity="0" stroke="#f5f6fa" stroke-linecap="square" stroke-miterlimit="50" xlink:href="#q" transform="translate(-13 -37)"/><use fill="#fff" fill-opacity="0" stroke="#f5f6fa" stroke-linecap="square" stroke-miterlimit="50" xlink:href="#r" transform="translate(-13 -37)"/><use fill="#fff" fill-opacity="0" stroke="#f5f6fa" stroke-linecap="square" stroke-miterlimit="50" xlink:href="#s" transform="translate(-13 -37)"/><use fill="#fff" fill-opacity="0" stroke="#f5f6fa" stroke-linecap="square" stroke-miterlimit="50" xlink:href="#t" transform="translate(-13 -37)"/><use fill="#fff" fill-opacity="0" stroke="#f5f6fa" stroke-linecap="square" stroke-miterlimit="50" xlink:href="#u" transform="translate(-13 -37)"/><use fill="#fff" fill-opacity="0" stroke="#f5f6fa" stroke-linecap="square" stroke-miterlimit="50" xlink:href="#v" transform="translate(-13 -37)"/><g fill="#fff" transform="translate(-13 -37)"><use xlink:href="#c"/><use fill-opacity="0" stroke="#f5f6fa" stroke-miterlimit="50" stroke-width="2" clip-path="url(&quot;#w&quot;)" xlink:href="#c"/></g><use fill="#fafafc" xlink:href="#x" transform="translate(-13 -37)"/><use fill="#fff" fill-opacity="0" stroke="#f5f6fa" stroke-linecap="square" stroke-miterlimit="50" xlink:href="#y" transform="translate(-13 -37)"/><use fill="#f5f6fa" xlink:href="#z" transform="translate(-13 -37)"/><use fill="#f5f6fa" xlink:href="#A" transform="translate(-13 -37)"/><use fill="#f5f6fa" xlink:href="#B" transform="translate(-13 -37)"/><use fill="#f5f6fa" xlink:href="#C" transform="translate(-13 -37)"/><use fill="#fff" fill-opacity="0" stroke="#cbcfd7" stroke-dasharray="2 1" stroke-miterlimit="50" stroke-width="2" clip-path="url(&quot;#D&quot;)" xlink:href="#d" transform="translate(-13 -37)"/><g transform="translate(-13 -37)"><g filter="url(#E)"><use fill="none" stroke-opacity=".06" stroke-width="0" mask="url(&quot;#F&quot;)" xlink:href="#e"/><use fill="#40484f" fill-opacity=".06" xlink:href="#e"/></g><use fill="#fff" xlink:href="#e"/></g><use fill="#fafafc" xlink:href="#G" transform="translate(-13 -37)"/><use fill="#fff" fill-opacity="0" stroke="#cbcfd7" stroke-miterlimit="50" stroke-width="2" clip-path="url(&quot;#H&quot;)" xlink:href="#e" opacity=".3" transform="translate(-13 -37)"/><use fill="#e5e6ec" xlink:href="#I" transform="translate(-13 -37)"/><use fill="#e5e6ec" xlink:href="#J" transform="translate(-13 -37)"/><use fill="#e5e6ec" xlink:href="#K" transform="translate(-13 -37)"/><use fill="#fff" fill-opacity="0" stroke="#cbcfd7" stroke-linecap="square" stroke-miterlimit="50" xlink:href="#L" opacity=".3" transform="translate(-13 -37)"/><use fill="#fafafc" xlink:href="#M" transform="translate(-13 -37)"/><use fill="#f5f6fa" xlink:href="#N" transform="translate(-13 -37)"/><use fill="#f5f6fa" xlink:href="#O" transform="translate(-13 -37)"/><use fill="#fff" fill-opacity="0" stroke="#f5f6fa" stroke-miterlimit="50" stroke-width="2" clip-path="url(&quot;#P&quot;)" xlink:href="#f" transform="translate(-13 -37)"/><use fill="#ffc200" xlink:href="#Q" transform="translate(-13 -37)"/><use fill="#ffc200" xlink:href="#R" transform="translate(-13 -37)"/><use fill="#ffc200" xlink:href="#S" transform="translate(-13 -37)"/><use fill="#ffc200" xlink:href="#T" transform="translate(-13 -37)"/><use fill="#ffc200" xlink:href="#U" transform="translate(-13 -37)"/><use fill="#ffc200" xlink:href="#V" transform="translate(-13 -37)"/><use fill="#ffc200" xlink:href="#W" transform="translate(-13 -37)"/><g transform="translate(-13 -37)"><use fill="#ffc200" xlink:href="#X"/></g><g transform="translate(-13 -37)"><use fill="#fff" fill-opacity="0" stroke="#f5f6fa" stroke-linecap="square" stroke-miterlimit="50" xlink:href="#Y"/></g><g transform="translate(-13 -37)"><use fill="#fff" fill-opacity="0" stroke="#f5f6fa" stroke-linecap="square" stroke-miterlimit="50" xlink:href="#Z"/></g><g transform="translate(-13 -37)"><use fill="#fff" fill-opacity="0" stroke="#f5f6fa" stroke-linecap="square" stroke-miterlimit="50" xlink:href="#aa"/></g><g transform="translate(-13 -37)"><use fill="#fff" fill-opacity="0" stroke="#f5f6fa" stroke-linecap="square" stroke-miterlimit="50" xlink:href="#ab"/></g><g transform="translate(-13 -37)"><use fill="#fff" fill-opacity="0" stroke="#f5f6fa" stroke-linecap="square" stroke-miterlimit="50" xlink:href="#ac"/></g><g transform="translate(-13 -37)"><use fill="#cbcfd7" xlink:href="#ad"/></g><g><use fill="#fff" fill-opacity="0" stroke="#3d7dff" stroke-miterlimit="50" xlink:href="#ae" transform="rotate(35 215.175 46.385)"/><use fill="#fff" fill-opacity="0" stroke="#3d7dff" stroke-miterlimit="50" xlink:href="#af" transform="translate(-13 -37)"/></g></svg>