<svg xmlns="http://www.w3.org/2000/svg" xmlns:xlink="http://www.w3.org/1999/xlink" width="187" height="121"><defs><path id="a" d="M191 60a9 9 0 0 1 9 9v82a9 9 0 0 1-9 9H44a9 9 0 0 1-9-9V94.08c1.631.334 3.32.51 5.05.51 13.807 0 25-11.193 25-25 0-3.398-.678-6.637-1.905-9.59z"/><path id="b" d="M62.928 60h127.79c5.127 0 9.282 4.03 9.282 9v82c0 4.97-4.155 9-9.281 9H44.28c-5.126 0-9.281-4.03-9.281-9V93.806"/><path id="c" d="M20 70c0-11.046 8.954-20 20-20s20 8.954 20 20-8.954 20-20 20-20-8.954-20-20z"/><path id="f" d="M200 151a9 9 0 0 1-9 9H44a9 9 0 0 1-9-9v-11h165z"/><path id="g" d="M145 122V77h40v45z"/><path id="h" d="M35.5 140.5h164"/><path id="j" d="M55.5 121.5h79"/><path id="k" d="M55.5 110.5h26"/><path id="l" d="M88.5 110.5h46"/><path id="m" d="M67.5 88.5h35"/><path id="n" d="M109.5 88.5h25"/><path id="p" d="M55.5 99.5h79"/><path id="q" d="M74.644 78h60"/><path id="r" d="M156.73 94.245C156.73 87.482 160.433 82 165 82s8.27 5.482 8.27 12.245c0 6.763-3.703 12.245-8.27 12.245s-8.27-5.482-8.27-12.245z"/><path id="s" d="M159.16 96.625c0-2.03-.95-3.675-2.12-3.675-1.17 0-2.12 1.645-2.12 3.675s.95 3.675 2.12 3.675c1.17 0 2.12-1.645 2.12-3.675z"/><path id="t" d="M170.81 96.565c0-2.03.95-3.675 2.12-3.675 1.17 0 2.12 1.645 2.12 3.675s-.95 3.675-2.12 3.675c-1.17 0-2.12-1.645-2.12-3.675z"/><path id="u" d="M159.5 103.84h10.8v4.635c5.699 1.986 9.92 7.028 10.61 13.115H148.9c.69-6.083 4.906-11.123 10.6-13.111z"/><path id="v" d="M47.942 63.024c.138.124-.468.816-1.29 1.729-.827.92-1.468 1.856-2.406 3.073-1.921 2.497-3.92 5.562-5.369 8.97 0 0-2.644-3.076-4.443-5.115-.264-.299-.522-.612-.405-.71.083-.068.79.376.79.376l3.228 1.863s2.052-2.999 5.243-6.283c.895-.921 1.627-1.646 2.68-2.552.827-.71 1.778-1.525 1.972-1.351z"/><mask id="e" width="2" height="2" x="-1" y="-1"><path fill="#fff" d="M35 60h165v100H35z"/><use xlink:href="#a"/></mask><filter id="d" width="205" height="144" x="15" y="40" filterUnits="userSpaceOnUse"><feOffset dy="4" in="SourceGraphic" result="FeOffset1628Out"/><feGaussianBlur in="FeOffset1628Out" result="FeGaussianBlur1629Out" stdDeviation="4 4"/></filter><clipPath id="i"><use fill="#fff" xlink:href="#b"/></clipPath><clipPath id="o"><use fill="#fff" xlink:href="#c"/></clipPath></defs><g transform="translate(-20 -50)"><g filter="url(#d)"><use fill="none" stroke-opacity=".06" stroke-width="0" mask="url(&quot;#e&quot;)" xlink:href="#a"/><use fill="#40484f" fill-opacity=".06" xlink:href="#a"/></g><use fill="#fff" xlink:href="#a"/></g><use fill="#fafafc" xlink:href="#f" transform="translate(-20 -50)"/><use fill="#fafafc" xlink:href="#g" transform="translate(-20 -50)"/><use fill="#fff" fill-opacity="0" stroke="#eff0f3" stroke-linecap="square" stroke-miterlimit="50" xlink:href="#h" transform="translate(-20 -50)"/><use fill="#fff" fill-opacity="0" stroke="#cbcfd7" stroke-miterlimit="50" stroke-width="2" clip-path="url(&quot;#i&quot;)" xlink:href="#b" opacity=".3" transform="translate(-20 -50)"/><use fill="#fff" fill-opacity="0" stroke="#f5f6fa" stroke-linecap="square" stroke-miterlimit="50" xlink:href="#j" transform="translate(-20 -50)"/><use fill="#fff" fill-opacity="0" stroke="#f5f6fa" stroke-linecap="square" stroke-miterlimit="50" xlink:href="#k" transform="translate(-20 -50)"/><use fill="#fff" fill-opacity="0" stroke="#f5f6fa" stroke-linecap="square" stroke-miterlimit="50" xlink:href="#l" transform="translate(-20 -50)"/><use fill="#fff" fill-opacity="0" stroke="#f5f6fa" stroke-linecap="square" stroke-miterlimit="50" xlink:href="#m" transform="translate(-20 -50)"/><use fill="#fff" fill-opacity="0" stroke="#f5f6fa" stroke-linecap="square" stroke-miterlimit="50" xlink:href="#n" transform="translate(-20 -50)"/><g fill="#fff" transform="translate(-20 -50)"><use xlink:href="#c"/><use fill-opacity="0" stroke="#e3e5ea" stroke-miterlimit="50" stroke-width="2" clip-path="url(&quot;#o&quot;)" xlink:href="#c"/></g><use fill="#fff" fill-opacity="0" stroke="#f5f6fa" stroke-linecap="square" stroke-miterlimit="50" xlink:href="#p" transform="translate(-20 -50)"/><use fill="#fff" fill-opacity="0" stroke="#f5f6fa" stroke-linecap="square" stroke-miterlimit="50" xlink:href="#q" transform="translate(-20 -50)"/><use fill="#ffc200" xlink:href="#r" transform="translate(-20 -50)"/><use fill="#ffc200" xlink:href="#s" transform="translate(-20 -50)"/><use fill="#ffc200" xlink:href="#t" transform="translate(-20 -50)"/><g transform="translate(-20 -50)"><use fill="#ffc200" xlink:href="#u"/></g><g transform="translate(-20 -50)"><use fill="#00d093" xlink:href="#v"/><use fill="#fff" fill-opacity="0" stroke="#00d093" stroke-miterlimit="50" xlink:href="#v"/></g></svg>