<svg xmlns="http://www.w3.org/2000/svg" xmlns:xlink="http://www.w3.org/1999/xlink" width="194" height="194"><defs><path id="a" d="M20 110c0-49.706 40.294-90 90-90s90 40.294 90 90-40.294 90-90 90-90-40.294-90-90z"/><path id="g" d="M101 214.4v-18h18v18z"/><path id="b" d="M33.5 110c0-42.25 34.25-76.5 76.5-76.5s76.5 34.25 76.5 76.5-34.25 76.5-76.5 76.5-76.5-34.25-76.5-76.5zm76.95 59.4c32.557 0 58.95-26.393 58.95-58.95S143.007 51.5 110.45 51.5 51.5 77.893 51.5 110.45s26.393 58.95 58.95 58.95z"/><path id="i" d="M32.6 110.94v-.9h17.2v.9z"/><path id="j" d="M170.2 110.94v-.9h17.2v.9z"/><path id="k" d="M32.58 111.78v-.9h17.2v.9z"/><path id="l" d="M169.32 111.78v-.9h17.2v.9z"/><path id="m" d="M33.55 111.54v-.9h17.2v.9z"/><path id="n" d="M169.93 111.54v-.9h17.2v.9z"/><path id="o" d="M32.75 111.25v-.9h17.2v.9z"/><path id="p" d="M169.13 111.25v-.9h17.2v.9z"/><path id="q" d="M110 43v-8.6h.9V43z"/><path id="r" d="M110 187.4v-8.6h.9v8.6z"/><path id="s" d="M99.89 109.36a3 3 0 0 1 3-3h16.25a3 3 0 0 1 3 3v15.84a3 3 0 0 1-3 3h-16.25a3 3 0 0 1-3-3zm13.908 6.101c0-1.508-1.246-2.73-2.784-2.73-1.538 0-2.785 1.222-2.785 2.73a2.65 2.65 0 0 0 1.392 2.303v4.123h2.785v-4.123a2.65 2.65 0 0 0 1.392-2.303z"/><path id="t" d="M111.015 91.8c4.609 0 8.345 3.667 8.345 8.19v7.28h-2.798v-7.28h.01c0-3.015-2.49-5.46-5.562-5.46s-5.562 2.445-5.562 5.46h.01v7.28h-2.788v-7.28c0-4.523 3.736-8.19 8.345-8.19z"/><mask id="d" width="2" height="2" x="-1" y="-1"><path fill="#fff" d="M20 20h180v180H20z"/><use xlink:href="#a"/></mask><filter id="c" width="220" height="224" x="0" y="0" filterUnits="userSpaceOnUse"><feOffset dy="4" in="SourceGraphic" result="FeOffset1429Out"/><feGaussianBlur in="FeOffset1429Out" result="FeGaussianBlur1430Out" stdDeviation="4 4"/></filter><clipPath id="e"><use fill="#fff" xlink:href="#a"/></clipPath><clipPath id="f"><use xlink:href="#a"/></clipPath><clipPath id="h"><use xlink:href="#b"/></clipPath></defs><g transform="translate(-13 -17)"><g filter="url(#c)"><use fill="none" stroke-opacity=".05" stroke-width="0" mask="url(&quot;#d&quot;)" xlink:href="#a"/><use fill="#40484f" fill-opacity=".05" xlink:href="#a"/></g><use fill="#fff" xlink:href="#a"/></g><use fill="#fff" fill-opacity="0" stroke="#cbcfd7" stroke-miterlimit="50" stroke-width="2" clip-path="url(&quot;#e&quot;)" xlink:href="#a" opacity=".3" transform="translate(-13 -17)"/><g clip-path="url(#f)" transform="rotate(45 124.02 181.308)"><use fill="#3d7dff" xlink:href="#g"/></g><g clip-path="url(#f)" transform="translate(-13 -17)"><use fill="#f0f1f2" xlink:href="#b"/><g clip-path="url(#h)"><use fill="#cbcfd7" xlink:href="#i"/><use fill="#cbcfd7" xlink:href="#j"/><use fill="#cbcfd7" xlink:href="#k" transform="rotate(90 110 110.5)"/><use fill="#cbcfd7" xlink:href="#l" transform="rotate(90 110 110.5)"/><g><use fill="#cbcfd7" xlink:href="#m" transform="rotate(45 110 111)"/><use fill="#cbcfd7" xlink:href="#n" transform="rotate(45 110 111)"/></g><g><use fill="#cbcfd7" xlink:href="#o" transform="rotate(-45 109 111)"/><use fill="#cbcfd7" xlink:href="#p" transform="rotate(-45 109 111)"/></g></g><g clip-path="url(#h)" transform="rotate(15 110.5 110.5)"><use fill="#cbcfd7" xlink:href="#q"/><use fill="#cbcfd7" xlink:href="#r"/></g><g clip-path="url(#h)" transform="rotate(30 110.5 111)"><use fill="#cbcfd7" xlink:href="#q"/><use fill="#cbcfd7" xlink:href="#r"/></g><g clip-path="url(#h)" transform="rotate(60 110.5 111)"><use fill="#cbcfd7" xlink:href="#q"/><use fill="#cbcfd7" xlink:href="#r"/></g><g clip-path="url(#h)" transform="rotate(75 110.5 111)"><use fill="#cbcfd7" xlink:href="#q"/><use fill="#cbcfd7" xlink:href="#r"/></g><g clip-path="url(#h)" transform="rotate(105 110.5 111)"><use fill="#cbcfd7" xlink:href="#q"/><use fill="#cbcfd7" xlink:href="#r"/></g><g clip-path="url(#h)" transform="rotate(120 111 111)"><use fill="#cbcfd7" xlink:href="#q"/><use fill="#cbcfd7" xlink:href="#r"/></g><g clip-path="url(#h)" transform="rotate(165 110.5 111.5)"><use fill="#cbcfd7" xlink:href="#q"/><use fill="#cbcfd7" xlink:href="#r"/></g><g clip-path="url(#h)" transform="rotate(150 111 111)"><use fill="#cbcfd7" xlink:href="#q"/><use fill="#cbcfd7" xlink:href="#r"/></g></g><g><use fill="#ffc200" xlink:href="#s" transform="translate(-13 -17)"/><use fill="#ffc200" xlink:href="#t" transform="translate(-13 -17)"/></g></svg>